<?xml version="1.0" encoding="UTF-8"?>
<svg id="Layer_1" data-name="Layer 1" xmlns="http://www.w3.org/2000/svg" version="1.1" viewBox="0 0 16 16">
  <defs>
    <style>
      .cls-1 {
        fill: #000;
      }

      .cls-1, .cls-2 {
        stroke-width: 0px;
      }

      .cls-2 {
        fill: #fff;
      }
    </style>
  </defs>
  <circle class="cls-1" cx="8" cy="8" r="7.79"/>
  <g>
    <path class="cls-2" d="M8.46,13.42c.1.28.33.39.57.49-.25.03-.68-.05-.9-.35-.24.3-.58.35-.94.36.18-.08.37-.15.49-.31.04-.05.08-.11.11-.18-.22.28-.52.39-.87.4.11-.06.22-.11.31-.17.1-.06.18-.15.22-.26-.03.02-.06.05-.08.07-.14.12-.3.2-.49.22-.15.02-.29-.04-.35-.17.22.09.38,0,.52-.15.08-.09.17-.19.25-.28.28-.28.57-.27.83.02.24-.3.41-.3.83,0,.03-.06.01-.11-.04-.15-.09-.07-.19-.13-.29-.19-1.12-.7-2.24-1.4-3.36-2.11-.2-.13-.39-.27-.58-.41-.04-.03-.07-.06-.11-.1,0,0,0-.01.01-.02.07.03.14.05.21.08.96.45,1.93.89,2.89,1.35.37.17.72.36,1.09.54.16.08.28.18.32.35.02.08.07.11.15.08.17-.07.33-.03.48.06.12.07.23.14.34.22.26-.28.65-.28.97,0,.18.16.28.35.24.59,0,.02.02.05.03.07.07.04.15.08.23.12.05.02.09.05.06.12-.03.06-.08.07-.14.04-.08-.04-.16-.1-.24-.15-.02-.01-.07-.01-.09,0-.15.12-.32.14-.5.1-.33-.08-.56-.26-.63-.61,0-.02-.02-.04-.03-.06-.14-.13-.31-.19-.51-.17-.21.02-.37.24-.33.45.03.16.29.29.46.24.03,0,.06-.02.09-.04-.05.12-.13.18-.28.18-.21,0-.4-.08-.56-.22-.02-.02-.05-.04-.08-.06.1.22.29.32.5.39-.35.02-.63-.1-.84-.38ZM10.76,13.53c.32,0,.45-.2.32-.45-.11-.21-.29-.31-.52-.33-.12,0-.23.02-.29.13-.06.11-.05.22,0,.32.12.21.3.31.49.32ZM8.21,12.27c.08,0,.13-.05.13-.12,0-.08-.06-.15-.13-.15-.07,0-.14.07-.14.13,0,.08.07.14.15.14Z"/>
    <path class="cls-2" d="M12.42,5.55c-.09-.1-.17-.17-.23-.25-.09-.11-.12-.24-.12-.38,0-.15,0-.29,0-.44,0-.1-.04-.19-.11-.28-.09.14-.18.27-.26.4-.05.07-.02.14.04.2.05.04.04.08,0,.11-.24-.16-.48-.32-.72-.48.01-.02.03-.05.04-.07.01,0,.02,0,.03.01.17.1.2.1.31-.08.15-.25.3-.51.45-.77.1-.17.09-.21-.07-.33-.01-.01-.03-.02-.04-.03.01-.02.02-.05.03-.07,0,0,.02,0,.02,0,.4.25.8.5,1.12.85.06.07.11.14.15.22.06.13.04.26-.05.37-.09.11-.22.12-.35.09-.06-.01-.12-.04-.18-.06-.01.15-.03.29-.04.44-.01.15-.03.3.04.44,0,.02-.02.06-.05.11ZM12,4.15c.11.06.2.12.3.16.19.07.36-.04.4-.23.03-.15-.1-.37-.24-.42-.07-.02-.12,0-.16.05-.1.14-.19.27-.3.44Z"/>
    <path class="cls-2" d="M10.02,2.37c.42.01.77.17,1.06.48.39.42.18.95-.29,1.13-.48.18-1.16-.02-1.46-.43-.34-.46-.12-1.04.44-1.15.08-.02.17-.02.25-.03ZM10.8,3.13s0-.05,0-.07c-.02-.26-.21-.47-.48-.53-.24-.06-.46.05-.59.28-.12.23-.14.47-.05.71.14.39.62.53.92.16.13-.16.19-.35.2-.56Z"/>
    <path class="cls-2" d="M9.06,6.24v-.1s.02,0,.03,0c.34,0,.67,0,1.01.01.24,0,.43.16.49.36.07.24,0,.47-.2.62-.19.15-.4.17-.63.13-.02,0-.04,0-.06-.01,0,0-.01,0-.04,0,0,.17.02.34.03.52,0,.08.07.11.14.12.03,0,.06,0,.1,0v.11h-.88v-.1c.19-.03.22-.07.22-.26,0-.37,0-.75,0-1.12,0,0,0-.02,0-.03,0-.18-.04-.22-.22-.25ZM9.69,6.7h-.01c0,.12,0,.24,0,.36,0,.03.02.07.04.08.17.06.36-.03.41-.2.03-.11.04-.24.03-.35,0-.23-.16-.35-.39-.33-.06,0-.09.03-.09.09,0,.12,0,.24,0,.37Z"/>
    <path class="cls-2" d="M8.23,11.72c1.12-.57,2.22-1.12,3.35-1.63,0,0,.01.01.02.02-.02.02-.04.05-.06.07-.31.23-.62.48-.94.7-.57.38-1.16.74-1.74,1.11-.02.01-.06.02-.08.01-.18-.09-.35-.18-.55-.28Z"/>
    <path class="cls-2" d="M6.2,12.79c.11-.07.21-.14.31-.21.13-.08.27-.11.42-.07.16.04.17.03.24-.11,0-.01.02-.03.02-.04.03-.15.17-.17.28-.22.02,0,.04,0,.06,0,.17.11.33.21.52.34-.19.11-.35.22-.52.31-.04.02-.11.02-.17,0-.15-.02-.29-.05-.44-.07-.26-.04-.47.08-.64.26-.02.02-.02.05-.02.07-.03.42-.49.72-.87.65-.08-.02-.16-.06-.24-.1-.04-.02-.07-.03-.11,0-.05.04-.11.08-.17.11-.03.02-.08.03-.11.03-.03,0-.07-.04-.08-.06,0-.03.02-.07.04-.09.07-.05.16-.08.23-.12.04-.02.06-.05.05-.1-.03-.14,0-.27.08-.39.2-.28.47-.41.81-.38.13.01.23.09.3.2ZM5.78,12.76c-.26,0-.51.17-.59.39-.07.19.02.35.2.38.27.05.57-.12.65-.39.07-.22-.04-.38-.27-.38Z"/>
    <path class="cls-2" d="M6.59,6.14v.1c-.21.05-.22.05-.15.26.12.33.25.66.38.99h.03c.09-.23.18-.45.27-.68.05-.13.09-.26.12-.39.04-.13.02-.15-.11-.17-.02,0-.05,0-.08,0v-.1h.7s0,.06,0,.11c-.23-.02-.3.15-.37.3-.2.45-.39.91-.58,1.36-.05.12-.05.12-.19.12-.14-.34-.28-.69-.42-1.03-.07-.18-.15-.37-.23-.55-.07-.15-.12-.18-.28-.21v-.1h.89Z"/>
    <path class="cls-2" d="M4.69,4.08c.03.13.05.25.08.37,0,.01-.01.04-.02.05-.28.27-.58.5-.95.63-.17.06-.34.08-.51.04-.35-.08-.53-.4-.42-.78.1-.35.32-.63.61-.85.17-.13.37-.22.56-.33.04-.02.07-.01.09.02.07.09.14.17.22.26-.04.04-.08.07-.12.11-.17-.18-.37-.15-.56-.05-.25.13-.43.34-.46.63-.04.41.35.75.76.68.3-.05.53-.27.59-.55,0-.03.01-.06,0-.08-.02-.09.02-.14.13-.15Z"/>
    <path class="cls-2" d="M14.22,5.94c-.07-.04-.09-.08-.06-.17.08-.21-.02-.53-.21-.66-.03-.02-.06-.04-.09-.05-.13-.05-.24.02-.24.16,0,.09.03.18.06.26.05.18.12.36.15.54.05.29-.19.49-.48.4-.24-.08-.41-.24-.55-.44-.07-.1-.13-.22-.19-.33,0-.02,0-.05,0-.07.07-.1.15-.19.23-.29.07.04.1.08.07.17-.08.2-.04.41.08.58.05.07.13.12.21.14.12.04.24-.04.23-.17-.01-.14-.05-.29-.09-.43-.04-.16-.12-.31-.11-.48,0-.03,0-.05,0-.08.04-.22.19-.32.39-.25.11.03.22.1.31.17.22.18.37.4.48.66.01.03,0,.07-.01.1-.06.08-.12.15-.19.22Z"/>
    <path class="cls-2" d="M5.99,3.51s.06-.03.1-.05c.14.16.32.26.53.25.08,0,.17-.04.23-.09.13-.1.11-.28-.04-.35-.13-.06-.27-.08-.4-.12-.12-.04-.26-.06-.37-.11-.22-.1-.27-.32-.12-.51.14-.18.35-.26.56-.31.16-.03.32-.03.48-.03.02,0,.06.03.07.06.03.09.05.19.08.29-.07.05-.11.04-.16-.03-.14-.18-.35-.24-.55-.16-.05.02-.09.05-.13.08-.12.11-.1.26.06.32.13.05.26.06.39.09.1.02.21.04.3.08.31.13.36.46.1.68-.18.16-.41.22-.64.26-.29.04-.29.04-.42-.21-.02-.04-.04-.09-.07-.14Z"/>
    <path class="cls-2" d="M2.47,5.08c-.03.08-.06.11-.15.09-.28-.05-.53.18-.53.46,0,.12.06.18.18.15.08-.02.16-.05.23-.09.1-.06.2-.13.3-.19.06-.04.13-.08.2-.1.24-.08.44.06.45.31.01.15-.03.3-.1.43-.12.22-.28.4-.46.57-.02.01-.05.02-.07.02-.11-.04-.22-.08-.34-.13.03-.04.05-.08.07-.12.22.04.41,0,.57-.16.08-.07.12-.17.13-.27.02-.15-.09-.26-.23-.23-.1.02-.19.07-.29.12-.1.06-.19.13-.29.19-.04.03-.09.05-.14.07-.25.1-.46-.06-.41-.32.02-.13.06-.26.12-.38.11-.24.29-.43.49-.61.09.07.19.13.28.2Z"/>
    <path class="cls-2" d="M8.83,2.53c-.06.04-.09.01-.12-.05-.12-.24-.33-.35-.57-.29-.1.02-.18.07-.2.18-.02.1.04.17.12.21.1.06.21.1.32.15.1.05.2.09.29.15.25.17.25.46,0,.63-.11.08-.24.13-.37.13-.2,0-.39-.02-.59-.03-.05,0-.08-.03-.1-.09-.03-.11-.07-.21-.1-.31.1-.06.1-.06.16.03.12.18.28.31.51.3.07,0,.15-.04.21-.08.09-.07.1-.21.02-.29-.05-.05-.12-.09-.19-.13-.11-.05-.23-.09-.34-.14-.08-.04-.16-.08-.22-.13-.15-.13-.15-.33-.02-.48.11-.13.27-.18.43-.2.24-.04.47,0,.7.07.04.01.06.03.06.07,0,.1,0,.19,0,.29Z"/>
    <path class="cls-2" d="M8.8,7.9s0,.02,0,.04c0,.02,0,.04,0,.07h-.88v-.11s.04,0,.06,0c.1-.01.15-.06.15-.16,0-.13.01-.27.01-.4,0-.28,0-.57,0-.85,0-.19-.04-.22-.22-.25v-.1h.88v.1s-.06,0-.09.01c-.1.02-.15.07-.15.17,0,.44,0,.87,0,1.31,0,.11.06.16.17.17.02,0,.04,0,.06,0Z"/>
    <path class="cls-2" d="M5.89,3.94s.02.06.02.08c-.28.11-.55.21-.83.32,0-.02-.02-.04-.03-.07.02-.01.04-.02.05-.03.15-.08.16-.11.09-.27-.12-.27-.25-.53-.37-.8-.11-.24-.13-.25-.37-.15,0,0-.02-.02-.02-.03,0-.01,0-.03-.02-.06.33-.14.66-.27,1-.41.02.04.03.06.04.09-.04.02-.08.03-.12.05-.12.05-.15.1-.1.23.09.24.18.49.27.73.03.08.06.17.09.25.04.11.08.12.19.09.03,0,.06-.02.11-.03Z"/>
    <path class="cls-2" d="M4.83,8.68s-.03.02-.05.02c-.06,0-.08.04-.08.09,0,.16,0,.32,0,.48,0,.07.01.12.09.12.02,0,.03,0,.05.01,0,0-.01.02-.02.03h-.43s0-.01,0-.02c.02,0,.04-.02.05-.03.03-.02.07-.05.07-.07,0-.15,0-.31,0-.46,0,0-.02,0-.02,0-.07.15-.15.3-.22.44-.02.05-.06.08-.09.13-.03-.04-.07-.09-.09-.13-.07-.14-.13-.29-.2-.44,0,0-.02,0-.03,0,0,.12,0,.25,0,.37q0,.13.13.19s-.17.05-.36.02c.03-.02.04-.04.06-.04.05-.01.08-.04.08-.09,0-.16.02-.31.03-.47,0-.07,0-.13-.1-.12-.01,0-.03-.02-.04-.03,0,0,0-.01,0-.02.09,0,.19,0,.28,0,.02,0,.04.03.05.05.08.15.15.29.23.45.08-.15.16-.29.23-.44.03-.06.06-.08.12-.08.08,0,.15,0,.23,0,0,0,0,.02,0,.03Z"/>
    <path class="cls-2" d="M11.36,8.63c.18,0,.33.06.42.24.13.26-.06.56-.36.58-.07,0-.14,0-.2-.01-.22-.05-.35-.22-.34-.44.02-.19.18-.34.4-.36.02,0,.05,0,.08,0ZM11.07,9c.03.09.06.19.1.27.04.08.13.12.22.11.1,0,.17-.07.19-.16.02-.09.03-.18.02-.27-.02-.17-.15-.28-.28-.27-.13.01-.22.14-.24.32Z"/>
    <path class="cls-2" d="M12.77,9.44s-.08-.03-.11-.06c-.16-.17-.33-.35-.5-.53,0,.16,0,.31,0,.46,0,.03.06.05.09.07.02.01.03.02.05.03,0,0,0,.01,0,.02h-.35s0-.01,0-.02c.02-.01.03-.02.05-.03.03-.03.07-.05.08-.08,0-.16,0-.32.01-.48,0-.07-.02-.12-.1-.12-.01,0-.03-.02-.03-.05.08,0,.16,0,.24,0,.02,0,.04.02.05.04.16.15.31.3.47.45,0-.11,0-.24,0-.37,0-.03-.05-.05-.08-.07-.01-.01-.03-.01-.05-.02,0,0,0-.01,0-.02h.33s-.02.04-.02.04c-.09,0-.09.06-.09.12,0,.2,0,.4,0,.6,0,0-.02.02-.03.02Z"/>
    <path class="cls-2" d="M6.18,9.42h-.35s0-.01,0-.02c.01-.01.02-.03.04-.03.06,0,.09-.05.09-.11,0-.14,0-.29,0-.43,0-.08-.01-.14-.11-.15,0,0-.01-.01-.02-.02.1-.05.25-.02.32.05.14.14.29.29.44.43,0-.12,0-.25,0-.37,0-.03-.05-.05-.08-.08-.02-.01-.04-.02-.05-.03,0,0,0-.01,0-.02h.31s0,.04-.01.04c-.09,0-.09.07-.09.13,0,.2,0,.4,0,.6,0,0-.02.01-.03.02-.04-.02-.08-.03-.11-.06-.16-.17-.33-.35-.5-.53,0,.16,0,.31,0,.46,0,.03.06.05.09.07.02.01.04.02.05.02,0,0,0,.02-.01.02Z"/>
    <path class="cls-2" d="M5.66,8.65s.02.09.03.16c-.07-.04-.12-.08-.19-.1-.07-.02-.14-.01-.21-.02v.28c.17.03.19.02.26-.1.05.1.02.19.02.29-.07-.1-.16-.13-.28-.1,0,.08,0,.16,0,.25,0,.02.02.04.04.05.09.05.25,0,.31-.08.01-.02.04-.03.06-.05,0,.03,0,.05,0,.08,0,.04-.02.08-.03.12h-.71s0-.01,0-.02c.01,0,.03-.03.04-.03.06,0,.08-.05.08-.11,0-.16,0-.32,0-.48,0-.06-.02-.11-.09-.1-.01,0-.02-.02-.06-.04h.72Z"/>
    <path class="cls-2" d="M9.95,9.43c-.13,0-.25,0-.37,0-.02,0-.04-.02-.06-.02.02,0,.04-.02.06-.03.01,0,.03,0,.04-.01,0-.12-.04-.18-.11-.19-.25-.01-.27,0-.29.18.02,0,.04.01.05.02.02,0,.03.02.05.03-.02,0-.03.02-.05.02-.09,0-.18,0-.28,0,0-.02.01-.04.02-.05.08-.01.11-.08.14-.14.09-.18.17-.36.26-.54.02-.03.03-.08.08-.06.03.01.06.04.08.07.08.17.15.35.23.53.03.06.06.13.14.15,0,0,0,.02.02.05ZM9.54,9.11c-.04-.09-.08-.18-.12-.29-.04.11-.08.19-.12.29h.23Z"/>
    <path class="cls-2" d="M8.84,8.65c0,.06.01.12.02.17,0,0-.01.01-.02.02-.02-.02-.05-.03-.06-.05-.05-.07-.1-.13-.19-.1-.04.01-.09.05-.09.09,0,.03.03.08.06.11.05.04.11.06.17.09.15.08.21.17.19.28-.03.14-.15.18-.26.19-.09,0-.19,0-.29-.02-.05,0-.09-.18-.05-.21,0,0,.04,0,.04.01.02.02.02.05.04.06.05.04.11.09.17.1.07.02.14,0,.17-.08.03-.08-.02-.12-.08-.16-.08-.04-.16-.08-.23-.12-.08-.05-.11-.12-.1-.21.01-.08.07-.13.14-.17.12-.05.25-.03.38,0Z"/>
    <path class="cls-2" d="M7.76,8.84s-.04-.04-.06-.06c-.04-.07-.1-.12-.18-.1-.04,0-.09.05-.1.08,0,.03.02.09.05.11.06.04.14.07.2.11.05.03.09.06.13.11.08.1.05.23-.06.29-.15.08-.31.08-.46.02-.04-.02-.03-.13-.04-.2.02.01.05.02.06.03.04.07.09.13.18.15.08.02.17-.01.19-.08.02-.08-.03-.12-.09-.16-.07-.04-.14-.07-.21-.11-.08-.05-.14-.11-.13-.22.02-.1.09-.16.18-.18.1-.01.2,0,.3,0,.02,0,.04.03.04.05,0,.04,0,.08.01.13,0,0-.01.01-.02.02Z"/>
    <path class="cls-2" d="M10.72,9.22s.04.09-.01.21h-.68s.04-.05.05-.05c.07,0,.08-.05.08-.11,0-.16,0-.31,0-.47,0-.06-.01-.12-.09-.11-.01,0-.03,0-.04-.01,0,0,.01-.02.02-.03h.43s0,0,0,.01c-.01,0-.03.03-.04.03-.06,0-.08.04-.08.09,0,.16,0,.33,0,.49,0,.06.03.09.09.1.12.01.22-.03.26-.15Z"/>
    <path class="cls-2" d="M7.14,8.76c0,.06-.04.11-.11.13-.02,0-.03,0-.05,0,0-.02,0-.03.02-.05.06-.07.05-.09-.04-.13-.01,0-.02-.02-.04-.03.01-.01.02-.03.03-.04.08-.05.19.02.18.12Z"/>
  </g>
</svg>