<?xml version="1.0" encoding="UTF-8"?>
<svg id="Layer_1" data-name="Layer 1" xmlns="http://www.w3.org/2000/svg" version="1.1" viewBox="0 0 1080 1080">
  <defs>
    <style>
      .cls-1 {
        fill: #000;
      }

      .cls-1, .cls-2 {
        stroke-width: 0px;
      }

      .cls-2 {
        fill: #fff;
      }
    </style>
  </defs>
  <circle class="cls-1" cx="540" cy="540" r="457.97"/>
  <g>
    <path class="cls-2" d="M567.12,858.53c5.6,16.32,19.26,23.04,33.78,28.67-14.81,1.94-40.13-2.76-53.05-20.83-14.26,17.72-34.3,20.54-55.15,21.42,10.59-4.75,21.51-8.96,29.05-18.39,2.55-3.19,4.63-6.75,6.46-10.75-13.08,16.4-30.49,22.78-51.36,23.38,6.63-3.63,12.77-6.6,18.5-10.22,5.78-3.65,10.36-8.61,12.66-15.52-1.65,1.47-3.3,2.95-4.96,4.4-8.25,7.18-17.77,11.6-28.6,13.2-8.91,1.32-17.26-2.53-20.62-9.72,12.81,5.34,22.29.16,30.57-9.09,4.89-5.46,9.71-11.01,14.9-16.17,16.62-16.53,33.52-16.07,48.99,1.12,14.26-17.51,24.22-17.52,48.78.04,1.91-3.56.87-6.5-2.16-8.63-5.58-3.92-11.23-7.74-17-11.37-65.81-41.36-131.72-82.57-197.43-124.1-11.81-7.46-22.86-16.12-34.2-24.31-2.34-1.69-4.39-3.8-6.58-5.71.22-.36.44-.72.66-1.07,4.14,1.58,8.39,2.92,12.4,4.78,56.69,26.35,113.43,52.6,169.98,79.27,21.5,10.14,42.44,21.45,63.8,31.89,9.25,4.52,16.39,10.51,19.1,20.85,1.25,4.76,4.02,6.48,8.94,4.53,9.96-3.94,19.38-1.59,28.21,3.44,6.9,3.93,13.48,8.44,20.26,12.73,15.11-16.25,38.11-16.5,56.92-.32,10.67,9.18,16.48,20.29,13.91,34.84-.21,1.16.95,3.2,2.05,3.85,4.28,2.53,8.78,4.71,13.24,6.92,2.92,1.45,5.42,3.21,3.69,6.89-1.63,3.47-4.76,4.32-7.96,2.56-4.8-2.63-9.23-5.92-14.04-8.53-1.33-.72-4-.74-5.08.14-8.81,7.12-19.03,8.41-29.34,5.95-19.18-4.58-33.04-15.3-36.91-35.97-.22-1.2-.94-2.51-1.84-3.34-8.39-7.74-18.24-11.46-29.72-10.16-12.35,1.4-21.74,14.17-19.46,26.33,1.75,9.31,16.91,17.17,27.01,13.96,1.84-.58,3.61-1.38,5.58-2.14-2.66,7.1-7.92,10.66-16.2,10.72-12.57.09-23.35-4.59-32.68-12.83-1.42-1.25-2.8-2.56-4.58-3.36,5.77,12.67,16.9,18.55,29.11,23.18-20.51,1.3-37.08-6.04-49.64-22.51ZM702.19,865.37c18.83.37,26.44-11.74,18.59-26.27-6.54-12.1-17.21-18.12-30.72-19.24-7.02-.58-13.38.91-17.31,7.46-3.81,6.35-2.96,12.83.49,18.97,6.82,12.15,17.46,18.28,28.96,19.09ZM552.43,791.15c4.73-.04,7.4-2.68,7.42-7.34.02-4.8-3.33-8.54-7.74-8.62-4.03-.08-8.36,3.87-8.36,7.63,0,4.58,3.94,8.38,8.67,8.34Z"/>
    <path class="cls-2" d="M800.03,396.15c-5.21-5.62-9.73-10.07-13.74-14.92-5.31-6.42-7.18-14.16-7.14-22.36.05-8.66.32-17.32.43-25.98.08-6.08-2.13-11.28-6.74-16.52-5.28,8.13-10.4,15.68-15.16,23.45-2.67,4.36-1.32,8.44,2.54,11.48,3.16,2.49,2.51,4.53.03,6.66-14.19-9.47-28.26-18.86-42.6-28.44.79-1.37,1.59-2.75,2.51-4.35.77.32,1.37.49,1.88.79,10.19,6.01,11.92,5.79,18.16-4.46,9.08-14.92,17.86-30.02,26.62-45.13,5.71-9.85,5.06-12.48-4.01-19.6-.77-.61-1.51-1.25-2.47-2.04.65-1.41,1.25-2.7,1.8-3.88.58-.04.99-.2,1.21-.06,23.45,14.64,46.91,29.32,65.58,50.16,3.5,3.91,6.52,8.48,8.79,13.21,3.73,7.76,2.27,15.3-3.22,21.88-5.5,6.58-12.8,7.2-20.51,5.43-3.52-.81-6.91-2.21-10.82-3.49-.86,8.77-1.74,17.27-2.53,25.78-.82,8.79-1.71,17.54,2.09,26.06.54,1.21-1.47,3.55-2.72,6.3ZM775.12,313.88c6.46,3.5,11.78,7.32,17.71,9.39,11.33,3.94,21.42-2.16,23.43-13.25,1.6-8.84-5.82-21.85-14.2-24.83-3.83-1.36-6.89-.09-9.13,3.1-5.63,8-11.18,16.05-17.81,25.59Z"/>
    <path class="cls-2" d="M658.82,209.29c24.68.69,45.38,10.07,62.04,27.97,22.74,24.45,10.75,56.08-16.91,66.5-28.28,10.66-67.99-1.05-86.1-25.18-20.1-26.79-6.92-60.94,26.15-67.51,4.87-.97,9.88-1.21,14.82-1.79ZM704.61,253.44c0-1.33.07-2.67-.01-3.99-.9-15.03-12.06-27.35-28-30.96-14.33-3.24-27.3,2.74-34.55,16.49-7.09,13.45-8.37,27.66-3.11,41.96,8.36,22.75,36.5,31.29,53.96,9.18,7.55-9.56,11.37-20.52,11.71-32.69Z"/>
    <path class="cls-2" d="M602.48,436.6v-5.81c.77-.21,1.38-.53,1.99-.53,19.81.23,39.63.2,59.43.87,13.98.47,25.35,9.23,28.77,20.94,4.08,13.97-.46,27.92-11.73,36.63-11.09,8.58-23.68,9.78-36.96,7.92-1.15-.16-2.28-.44-3.43-.61-.3-.04-.63.12-2.08.41.57,10.02.91,20.23,1.84,30.4.42,4.59,4.15,6.56,8.49,7.08,1.78.21,3.59.19,5.64.29v6.4h-51.71v-6.06c11.11-1.94,12.85-3.93,12.88-15.5.06-21.99,0-43.98,0-65.97,0-.5,0-1-.02-1.5-.29-10.65-2.23-12.93-13.1-14.96ZM639.61,463.49c-.22,0-.44,0-.66,0,0,7-.16,14,.12,20.99.06,1.55,1.33,3.93,2.61,4.42,9.7,3.66,21.43-1.68,24-11.7,1.7-6.63,2.06-13.82,1.77-20.7-.58-13.74-9.14-20.67-22.81-19.68-3.5.25-5.13,1.56-5.07,5.19.12,7.16.04,14.32.04,21.48Z"/>
    <path class="cls-2" d="M553.56,758.72c65.61-33.44,130.81-65.6,196.82-96.09.31.38.63.76.94,1.13-1.18,1.34-2.17,2.92-3.56,3.97-18.34,13.8-36.18,28.36-55.25,41.09-33.62,22.44-67.97,43.77-102.08,65.47-1.26.8-3.53,1.28-4.74.7-10.43-5.08-20.72-10.44-32.14-16.27Z"/>
    <path class="cls-2" d="M433.92,821.89c6.28-4.19,12.29-8.34,18.45-12.28,7.63-4.87,15.77-6.37,24.79-4.28,9.65,2.23,9.72,1.9,14.18-6.48.47-.88,1.24-1.68,1.45-2.61,2.02-8.93,9.93-10.27,16.73-12.96.93-.37,2.45-.22,3.29.32,9.77,6.26,19.47,12.63,30.39,19.77-10.96,6.54-20.69,12.72-30.83,18.15-2.6,1.39-6.54.91-9.75.45-8.72-1.25-17.34-3.16-26.05-4.41-15.44-2.21-27.41,4.76-37.89,15.12-.91.9-1.22,2.68-1.31,4.08-1.54,24.8-28.76,42.26-51.3,38.14-4.89-.89-9.58-3.59-14-6.11-2.43-1.39-4.06-1.58-6.22-.01-3.23,2.35-6.44,4.77-9.9,6.73-1.92,1.09-4.42,1.98-6.5,1.71-1.71-.22-4.12-2.07-4.49-3.61-.36-1.51.97-4.34,2.4-5.21,4.39-2.65,9.18-4.64,13.81-6.89,2.51-1.22,3.37-2.7,2.77-5.9-1.51-8.11-.16-16.03,4.62-22.92,11.52-16.6,27.56-24.11,47.63-22.35,7.69.68,13.56,5.12,17.71,11.53ZM409.71,819.85c-15.2-.06-30.01,9.78-34.41,22.86-3.83,11.36.95,20.3,11.93,22.34,15.92,2.95,33.23-7.29,38.4-22.72,4.35-12.95-2.37-22.42-15.92-22.47Z"/>
    <path class="cls-2" d="M457.36,430.51v5.87c-12.59,2.97-13.07,3.14-8.68,15.22,7.13,19.61,14.96,38.97,22.5,58.44l1.57-.16c5.25-13.25,10.66-26.44,15.67-39.78,2.8-7.45,5.16-15.08,7.31-22.75,2.18-7.78,1.29-8.89-6.45-10.14-1.31-.21-2.65-.27-4.41-.44v-6.1h41.08c.09,1.72.19,3.61.32,6.17-13.32-1.25-17.48,8.55-21.54,17.9-11.58,26.67-22.87,53.48-34.24,80.24-3.09,7.28-3.05,7.3-11.2,6.81-8.2-20.22-16.38-40.52-24.67-60.78-4.41-10.76-8.84-21.53-13.58-32.14-3.9-8.74-6.8-10.7-16.26-12.31v-6.07h52.58Z"/>
    <path class="cls-2" d="M345.27,309.72c1.58,7.4,3.2,14.64,4.6,21.91.16.85-.6,2.17-1.33,2.87-16.31,15.68-33.88,29.52-55.66,36.94-9.77,3.33-19.76,4.6-29.95,2.22-20.74-4.84-30.93-23.38-24.75-45.71,5.78-20.87,18.62-37.25,35.58-49.92,10.14-7.58,22.03-12.79,33.11-19.12,2.32-1.33,3.85-.8,5.47,1.26,4.01,5.09,8.24,10.01,12.66,15.34-2.55,2.31-4.85,4.38-7.31,6.61-10.26-10.51-21.79-9.07-33.13-3.23-14.9,7.68-25.02,19.85-26.79,36.77-2.48,23.82,20.77,44.16,44.57,40.02,17.6-3.06,31.26-15.8,34.62-32.33.33-1.62.8-3.38.48-4.93-1.12-5.49,1.39-7.96,7.82-8.72Z"/>
    <path class="cls-2" d="M905.78,419.09c-4.22-2.53-5.55-4.96-3.63-9.9,4.87-12.5-1.32-31.06-12.23-39.01-1.6-1.16-3.4-2.14-5.25-2.84-7.67-2.9-14.23,1.28-13.88,9.44.22,5.21,1.88,10.4,3.26,15.51,2.84,10.56,6.85,20.89,8.7,31.6,2.97,17.17-11.39,28.95-28.02,23.72-14.17-4.45-24.26-14.33-32.61-25.99-4.33-6.05-7.64-12.84-11.2-19.42-.54-.99-.41-3.01.27-3.89,4.36-5.65,8.97-11.11,13.61-16.77,4.38,2.43,5.98,4.75,3.84,10.19-4.71,11.97-2.54,23.82,4.97,34.01,2.83,3.83,7.81,6.79,12.41,8.43,7.28,2.59,14.04-2.39,13.31-10.07-.8-8.49-3.12-16.91-5.41-25.18-2.56-9.25-7.07-18.02-6.32-28,.11-1.49.13-3,.39-4.47,2.32-12.65,10.89-18.59,23.21-14.72,6.47,2.03,12.85,5.64,18.11,9.96,12.68,10.39,21.71,23.8,28.43,38.7.67,1.48.18,4.23-.84,5.59-3.39,4.51-7.27,8.64-11.12,13.12Z"/>
    <path class="cls-2" d="M421.77,276.18c1.99-1.04,3.72-1.95,5.64-2.96,8.41,9.33,18.69,15.28,31.39,14.7,4.59-.21,9.79-2.43,13.39-5.37,7.54-6.16,6.61-16.49-2.19-20.62-7.37-3.46-15.78-4.72-23.73-6.96-7.33-2.06-15.03-3.32-21.93-6.37-13.03-5.77-15.86-19-6.85-30.12,8.49-10.47,20.54-15.43,33.1-18.09,9.14-1.93,18.81-1.48,28.25-1.67,1.41-.03,3.64,2.02,4.15,3.55,1.84,5.49,3.11,11.18,4.61,16.87-3.87,2.65-6.58,2.35-9.64-1.56-8.39-10.76-20.8-14.31-32.41-9.62-2.71,1.1-5.4,2.74-7.5,4.76-6.9,6.63-5.63,15.46,3.31,18.78,7.39,2.74,15.46,3.62,23.18,5.48,5.96,1.44,12.14,2.45,17.72,4.84,18.3,7.82,21.19,27.18,6.02,40.07-10.74,9.13-23.91,12.96-37.51,15.02-17,2.57-17.06,2.3-24.96-12.6-1.38-2.6-2.64-5.26-4.06-8.12Z"/>
    <path class="cls-2" d="M214.72,368.58c-1.87,4.45-3.81,6.44-9.06,5.49-16.36-2.94-31.29,10.38-31.11,27.01.08,6.99,3.69,10.54,10.41,9.06,4.6-1.01,9.12-3.08,13.24-5.43,6.06-3.45,11.64-7.75,17.62-11.36,3.82-2.31,7.85-4.46,12.04-5.92,13.84-4.83,25.67,3.28,26.7,17.97.64,9.08-1.55,17.52-5.91,25.4-6.99,12.66-16.18,23.59-26.89,33.24-.96.86-3,1.38-4.18.98-6.6-2.23-13.09-4.78-20.17-7.44,1.49-2.61,2.76-4.85,3.98-7,12.83,2.16,24.14-.05,33.53-9.15,4.5-4.37,6.77-9.85,7.51-15.94,1.09-8.95-5.05-15.37-13.81-13.39-5.85,1.32-11.44,4.32-16.77,7.25-5.96,3.28-11.45,7.41-17.25,11-2.53,1.56-5.25,2.91-8.02,3.97-14.93,5.68-26.81-3.32-24.31-19.07,1.22-7.73,3.75-15.53,7.16-22.59,6.73-13.94,17.06-25.29,28.68-35.84,5.56,3.93,10.96,7.76,16.6,11.75Z"/>
    <path class="cls-2" d="M589.04,218.68c-3.6,2.14-5.4.75-7.18-2.79-7.12-14.14-19.62-20.33-33.58-16.93-5.66,1.38-10.36,4.32-11.53,10.41-1.14,5.95,2.51,9.92,7.28,12.48,6.13,3.29,12.62,5.92,18.88,8.96,5.82,2.83,11.9,5.32,17.27,8.86,14.82,9.77,14.82,26.75.38,37.15-6.54,4.71-13.97,7.63-21.81,7.73-11.58.14-23.18-.97-34.76-1.68-3.13-.19-4.77-2.05-5.64-5.24-1.69-6.23-3.9-12.33-5.87-18.41,5.71-3.5,6-3.33,9.34,1.82,6.99,10.77,16.17,18.44,29.73,17.76,4.15-.21,8.69-2.35,12.11-4.88,5.58-4.13,5.95-12.35.98-17.21-3.14-3.06-7.07-5.57-11.06-7.45-6.6-3.11-13.65-5.25-20.27-8.33-4.62-2.15-9.34-4.59-13.14-7.91-8.82-7.71-9.1-19.23-1.22-27.95,6.72-7.43,15.61-10.55,25.15-12.01,14.1-2.15,27.84-.1,41.39,3.97,2.33.7,3.69,1.62,3.6,4.38-.18,5.64-.05,11.3-.05,17.25Z"/>
    <path class="cls-2" d="M587.29,534.17c.19.83.42,1.45.45,2.08.06,1.31.02,2.63.02,4.33h-52.03v-6.19c1.25-.13,2.52-.26,3.79-.39,5.85-.61,8.74-3.32,9.07-9.28.43-7.81.67-15.65.66-23.47-.03-16.66-.04-33.32-.5-49.97-.3-10.94-2.29-12.83-13.08-14.85v-5.94h51.66v6.15c-1.82.23-3.46.32-5.05.66-5.9,1.26-8.59,3.9-8.63,9.89-.17,25.64-.19,51.29.01,76.94.05,6.66,3.35,9.43,10.1,9.88,1.13.08,2.26.11,3.53.17Z"/>
    <path class="cls-2" d="M416.07,301.47c.57,2.02.97,3.41,1.34,4.73-16.26,6.33-32.32,12.58-48.84,19-.52-1.03-1.23-2.44-2.04-4.05,1.19-.73,2.13-1.38,3.14-1.9,8.85-4.65,9.58-6.44,5.36-15.7-7.16-15.73-14.46-31.4-21.76-47.07-6.56-14.08-7.41-14.41-22.01-9.06-.4-.52-.97-1.09-1.29-1.77-.34-.72-.44-1.56-.92-3.38,19.47-7.95,38.91-15.89,58.67-23.96.9,2.13,1.51,3.58,2.29,5.42-2.55,1.07-4.8,2.02-7.05,2.97-7.06,2.98-8.57,5.78-5.9,13.27,5.13,14.39,10.65,28.64,15.99,42.96,1.86,4.98,3.54,10.03,5.54,14.95,2.6,6.38,4.61,7.23,11.18,5.29,1.89-.56,3.8-1.03,6.29-1.71Z"/>
    <path class="cls-2" d="M353.72,579.7c-.97.43-1.94,1.24-2.9,1.22-3.71-.07-4.43,2.14-4.42,5.17.04,9.33.12,18.66.01,27.99-.05,3.99.69,6.97,5.52,7.01.9,0,1.79.49,2.69.76-.42.57-.84,1.15-1.26,1.72h-25.47c-.19-.33-.38-.67-.57-1,1.04-.56,2.2-.98,3.09-1.73,1.57-1.31,4.2-2.76,4.26-4.25.4-9.09.2-18.21.2-27.31-.46-.13-.92-.25-1.39-.38-4.35,8.65-8.61,17.35-13.1,25.94-1.39,2.65-3.37,5-5.07,7.48-1.74-2.61-3.83-5.05-5.16-7.86-4-8.48-7.71-17.09-11.53-25.65-.58.08-1.15.15-1.73.23,0,7.23.02,14.46,0,21.69q-.03,7.78,7.74,11.19c-1.69,2.37-10.16,3.07-21.35,1.44,1.79-1.2,2.61-2.1,3.59-2.34,2.99-.71,4.57-2.31,4.77-5.49.57-9.14,1.28-18.26,1.92-27.39.29-4.12-.46-7.38-5.71-7.29-.76.01-1.53-1.06-2.3-1.63.14-.41.27-.82.41-1.23,5.57,0,11.16-.18,16.71.15,1.14.07,2.52,1.84,3.2,3.14,4.44,8.54,8.73,17.16,13.56,26.74,4.71-9.05,9.24-17.27,13.28-25.72,1.59-3.33,3.35-4.75,7.1-4.43,4.44.37,8.93.09,13.39.09.16.58.33,1.16.49,1.74Z"/>
    <path class="cls-2" d="M737.48,576.82c10.49.11,19.68,3.75,24.91,13.84,7.89,15.23-3.31,33.2-21.26,34.29-3.94.24-8.03-.02-11.88-.86-13.16-2.85-20.84-13.17-19.75-25.98.96-11.3,10.88-20.18,23.57-21.09,1.33-.09,2.66-.13,4.42-.21ZM720.5,599c2,5.34,3.51,10.94,6.13,15.96,2.56,4.92,7.45,7.07,13.03,6.53,5.73-.56,9.77-4.11,10.93-9.47,1.13-5.21,1.56-10.83.93-16.11-1.17-9.76-8.95-16.58-16.74-15.8-7.64.77-13.12,8.47-14.27,18.89Z"/>
    <path class="cls-2" d="M820.53,624.83c-2.09-1.2-4.59-2.01-6.2-3.68-9.66-10.07-19.12-20.34-29.2-31.14,0,9.49-.26,18.17.25,26.82.09,1.49,3.41,2.83,5.31,4.14.93.64,2.03,1.03,3.05,1.53-.14.39-.27.79-.41,1.18h-20.6c-.18-.31-.36-.63-.53-.94.91-.6,1.93-1.09,2.71-1.83,1.63-1.55,4.36-3.16,4.47-4.89.58-9.29.52-18.62.62-27.94.04-3.9-1.14-6.86-5.75-7.22-.79-.06-1.51-1.11-1.82-2.82,4.74,0,9.48-.14,14.2.11,1.04.05,2.08,1.39,2.99,2.27,9.26,8.86,18.49,17.75,27.56,26.47,0-6.71.27-14.23-.23-21.69-.1-1.49-3.07-2.86-4.83-4.13-.85-.61-1.96-.85-2.95-1.26.1-.44.21-.88.31-1.32h19.29c-.51.92-.92,2.31-1.33,2.31-5.26-.03-5.24,3.77-5.27,7.29-.09,11.79-.03,23.58-.03,35.38-.54.46-1.08.92-1.62,1.38Z"/>
    <path class="cls-2" d="M433.17,623.78h-20.33c-.19-.31-.38-.63-.57-.94.76-.62,1.45-1.65,2.29-1.78,3.66-.57,5.03-2.72,5.08-6.23.12-8.5.38-16.99.52-25.49.07-4.5-.73-8.43-6.47-8.71-.42-.02-.79-.86-1.23-1.38,6.17-2.92,14.52-1.45,18.87,2.88,8.5,8.45,17.13,16.78,26.02,25.46,0-7.34.27-14.72-.21-22.04-.11-1.6-2.83-3.12-4.51-4.48-.9-.73-2.13-1.04-3.22-1.55.13-.4.26-.8.38-1.2h18.4c-.3.95-.5,2.29-.77,2.31-5.12.27-5,3.9-5,7.51,0,11.79,0,23.58,0,35.37-.53.4-1.05.8-1.58,1.19-2.19-1.19-4.84-1.92-6.48-3.63-9.68-10.08-19.12-20.38-29.21-31.22,0,9.56-.26,18.25.25,26.91.09,1.5,3.36,2.89,5.25,4.19.93.64,2.08.99,3.12,1.46-.2.46-.4.92-.6,1.38Z"/>
    <path class="cls-2" d="M402.63,578.46c.53,2.76,1.05,5.47,1.77,9.24-4.17-2.33-7.33-4.91-10.93-5.9-3.88-1.07-8.16-.65-12.62-.9v16.69c9.82,1.5,11.06,1.05,15.02-6.04,3.18,5.63.96,11.08,1.22,16.85-4.11-5.76-9.38-7.67-16.53-6.05,0,4.59-.13,9.51.1,14.42.05,1.04,1.19,2.42,2.2,2.95,5.12,2.71,14.78,0,18.37-4.8.85-1.15,2.26-1.88,3.41-2.81.1,1.5.44,3.02.24,4.48-.31,2.29-.98,4.54-1.57,7.11h-41.54c-.17-.35-.34-.69-.51-1.04.82-.56,1.58-1.51,2.46-1.63,3.82-.49,4.91-2.87,4.9-6.28-.02-9.32-.05-18.65.05-27.97.04-3.71-.88-6.21-5.25-6.04-.66.03-1.36-.9-3.27-2.27h42.48Z"/>
    <path class="cls-2" d="M654.86,624.01c-7.83,0-14.81.07-21.79-.07-1.22-.02-2.42-.94-3.63-1.45,1.17-.58,2.31-1.22,3.51-1.72.74-.32,1.57-.44,2.32-.64-.31-7.05-2.54-10.75-6.49-10.94-14.69-.68-15.93.06-17.21,10.53.98.34,2.08.61,3.06,1.1,1,.5,1.89,1.22,2.83,1.84-.93.44-1.85,1.24-2.78,1.27-5.27.12-10.54.06-16.33.06.47-1.34.64-2.6.98-2.65,4.93-.71,6.61-4.63,8.41-8.39,5.12-10.63,10.19-21.28,15.27-31.92.97-2.04,1.61-4.99,4.67-3.8,1.78.69,3.64,2.45,4.44,4.19,4.68,10.28,9.01,20.71,13.56,31.05,1.68,3.81,3.4,7.68,8.16,8.73.38.08.51,1.32,1.03,2.8ZM630.33,605.49c-2.28-5.55-4.45-10.86-7-17.07-2.5,6.3-4.55,11.46-6.78,17.07h13.78Z"/>
    <path class="cls-2" d="M589.42,578.5c.43,3.6.82,6.85,1.21,10.09-.42.32-.85.64-1.27.96-1.19-1.06-2.71-1.92-3.51-3.22-2.66-4.32-6.07-7.55-11.35-5.91-2.28.71-5.02,3.16-5.55,5.32-.45,1.79,1.51,4.99,3.31,6.35,2.99,2.26,6.73,3.51,10.13,5.25,8.67,4.45,12.58,9.94,11.11,16.41-1.84,8.1-8.53,10.37-15.5,10.88-5.53.4-11.21-.55-16.76-1.3-2.7-.37-5.25-10.72-3.17-12.4.43-.35,2.07.16,2.64.76,1,1.06,1.32,2.88,2.43,3.7,3.11,2.3,6.24,5.04,9.82,6.13,3.93,1.19,8.23-.11,10-4.46,1.84-4.54-1.29-7.16-4.8-9.12-4.49-2.5-9.18-4.64-13.62-7.21-4.61-2.66-6.74-6.79-5.93-12.17.74-4.94,3.92-7.88,8.32-9.73,7.29-3.07,14.64-1.78,22.52-.32Z"/>
    <path class="cls-2" d="M525.8,589.62c-1.15-1.14-2.55-2.13-3.39-3.46-2.49-3.94-5.65-7.07-10.52-5.88-2.34.57-5.24,2.76-5.94,4.86-.58,1.74,1.08,5.25,2.82,6.53,3.56,2.63,7.98,4.06,11.77,6.42,2.77,1.72,5.57,3.79,7.55,6.32,4.46,5.69,2.84,13.72-3.47,17.26-8.7,4.88-18.19,4.76-26.91.98-2.13-.92-1.71-7.73-2.47-11.83,1.18.62,2.91.93,3.44,1.9,2.36,4.3,5.49,7.5,10.33,8.77,4.67,1.22,9.86-.77,11.02-4.49,1.44-4.62-1.52-7.18-5.04-9.13-4.07-2.25-8.35-4.12-12.38-6.44-4.92-2.82-8.38-6.74-7.35-12.95,1-6.01,5.08-9.65,10.7-10.39,5.83-.76,11.85-.23,17.77.06.93.05,2.29,1.68,2.56,2.79.57,2.39.56,4.92.79,7.39-.43.43-.87.86-1.3,1.29Z"/>
    <path class="cls-2" d="M699.92,611.6c2.42,2.88,2.15,5.5-.71,12.21h-39.85c1.61-1.51,2.27-2.67,3.03-2.75,3.92-.37,4.94-2.84,4.95-6.2,0-9.16.07-18.32-.03-27.48-.04-3.5-.64-6.8-5.43-6.6-.73.03-1.49-.51-2.24-.79.3-.5.61-1,.91-1.51h25.27c.16.26.33.52.49.78-.87.54-1.74,1.57-2.59,1.54-3.64-.1-4.65,2.07-4.68,5.05-.1,9.66-.17,19.32-.11,28.98.02,3.49,1.86,5.18,5.57,5.62,7.35.88,12.68-1.5,15.42-8.86Z"/>
    <path class="cls-2" d="M489.44,584.46c-.46,3.56-2.15,6.62-6.19,7.72-.9.25-2.02-.3-3.04-.49.3-.94.38-2.06.95-2.78,3.47-4.39,3.13-5.55-2.28-7.59-.8-.3-1.46-1.01-2.18-1.53.62-.85,1.06-2.03,1.9-2.51,4.67-2.7,10.95,1.3,10.84,7.18Z"/>
  </g>
</svg>